<svg xmlns="http://www.w3.org/2000/svg" width="600" height="500" viewBox="0 0 600 800" xml:space="preserve">
  <rect width="100%" height="100%" fill="transparent"/>
  <g transform="scale(0)"/>
  <g transform="translate(300 400)"/>
  <rect style="stroke:none;stroke-width:1;stroke-dasharray:none;stroke-linecap:butt;stroke-dashoffset:0;stroke-linejoin:miter;stroke-miterlimit:4;fill:#fff;fill-opacity:0;fill-rule:nonzero;opacity:1" vector-effect="non-scaling-stroke" x="-50" y="-50" rx="0" ry="0" width="100" height="100" fill="none" transform="matrix(.56 0 0 .56 101.72 274.92)"/>
  <g transform="matrix(.56 0 0 .56 246.98 370.26)"/>
  <path style="stroke:none;stroke-width:1;stroke-dasharray:none;stroke-linecap:butt;stroke-dashoffset:0;stroke-linejoin:miter;stroke-miterlimit:4;fill:#3f3d56;fill-rule:nonzero;opacity:1" vector-effect="non-scaling-stroke" transform="matrix(.8 0 0 .8 -192.54 41.546)" d="M898.293 272.533h-260.17v-5.362H520.152v5.362H258.91c-9.72 0-17.6 7.88-17.6 17.6v356.25c0 9.72 7.88 17.6 17.6 17.6h639.383a17.6 17.6 0 0 0 17.6-17.6V290.13c-.001-9.72-7.88-17.598-17.6-17.598"/>
  <rect style="stroke:none;stroke-width:1;stroke-dasharray:none;stroke-linecap:butt;stroke-dashoffset:0;stroke-linejoin:miter;stroke-miterlimit:4;fill:#e6e6e6;fill-rule:nonzero;opacity:1" vector-effect="non-scaling-stroke" x="-313.695" y="-176.955" rx="0" ry="0" width="627.39" height="353.91" transform="matrix(.8 0 0 .8 266.04 410.78)"/>
  <rect style="stroke:none;stroke-width:1;stroke-dasharray:none;stroke-linecap:butt;stroke-dashoffset:0;stroke-linejoin:miter;stroke-miterlimit:4;fill:#fff;fill-rule:nonzero;opacity:1" vector-effect="non-scaling-stroke" x="-287.195" y="-152.955" rx="0" ry="0" width="574.39" height="305.91" transform="matrix(.8 0 0 .8 267.04 400)"/>
  <circle style="stroke:none;stroke-width:1;stroke-dasharray:none;stroke-linecap:butt;stroke-dashoffset:0;stroke-linejoin:miter;stroke-miterlimit:4;fill:#6c63ff;fill-rule:nonzero;opacity:1" vector-effect="non-scaling-stroke" r="6.435" transform="matrix(.8 0 0 .8 263.77 256.49)"/>
  <path style="stroke:none;stroke-width:1;stroke-dasharray:none;stroke-linecap:butt;stroke-dashoffset:0;stroke-linejoin:miter;stroke-miterlimit:4;fill:#3f3d56;fill-rule:nonzero;opacity:1" vector-effect="non-scaling-stroke" transform="matrix(.8 0 0 .8 -195.45 24.262)" d="M933.507 651.112h-61.229V646.7a.875.875 0 0 0-.875-.875H850.41a.875.875 0 0 0-.875.875v4.412h-13.12V646.7a.875.875 0 0 0-.875-.875h-20.993a.875.875 0 0 0-.875.875v4.412h-13.12V646.7a.875.875 0 0 0-.875-.875h-20.993a.875.875 0 0 0-.875.875v4.412h-13.12V646.7a.875.875 0 0 0-.875-.875h-20.992a.875.875 0 0 0-.875.875v4.412h-13.121V646.7a.875.875 0 0 0-.875-.875h-20.992a.875.875 0 0 0-.875.875v4.412h-13.121V646.7a.875.875 0 0 0-.875-.875H671.1a.875.875 0 0 0-.875.875v4.412H657.1V646.7a.875.875 0 0 0-.875-.875H491.781a.875.875 0 0 0-.875.875v4.412h-13.12V646.7a.875.875 0 0 0-.875-.875h-20.993a.875.875 0 0 0-.875.875v4.412h-13.12V646.7a.875.875 0 0 0-.875-.875h-20.992a.875.875 0 0 0-.875.875v4.412H406.06V646.7a.875.875 0 0 0-.875-.875h-20.992a.875.875 0 0 0-.875.875v4.412H370.2V646.7a.875.875 0 0 0-.875-.875H348.33a.875.875 0 0 0-.875.875v4.412h-13.12V646.7a.875.875 0 0 0-.875-.875h-20.993a.875.875 0 0 0-.875.875v4.412h-13.12V646.7a.875.875 0 0 0-.875-.875H276.6a.875.875 0 0 0-.875.875v4.412h-40.232a20.993 20.993 0 0 0-20.993 20.993v9.492a20.993 20.993 0 0 0 20.993 20.993h698.014c11.594 0 20.992-9.399 20.993-20.992v-9.492a20.993 20.993 0 0 0-20.993-20.993Z"/>
  <rect style="stroke:none;stroke-width:1;stroke-dasharray:none;stroke-linecap:butt;stroke-dashoffset:0;stroke-linejoin:miter;stroke-miterlimit:4;fill:#e6e6e6;fill-rule:nonzero;opacity:1" vector-effect="non-scaling-stroke" x="-127" y="-133.5" rx="0" ry="0" width="254" height="267" transform="matrix(.8 0 0 .8 265.01 407.93)"/>
  <circle style="stroke:none;stroke-width:1;stroke-dasharray:none;stroke-linecap:butt;stroke-dashoffset:0;stroke-linejoin:miter;stroke-miterlimit:4;fill:#a0616a;fill-rule:nonzero;opacity:1" vector-effect="non-scaling-stroke" r="33.757" transform="matrix(.8 0 0 .8 288.79 334.54)"/>
  <path style="stroke:none;stroke-width:1;stroke-dasharray:none;stroke-linecap:butt;stroke-dashoffset:0;stroke-linejoin:miter;stroke-miterlimit:4;fill:#6c63ff;fill-rule:nonzero;opacity:1" vector-effect="non-scaling-stroke" transform="matrix(.8 0 0 .8 -198.428 25.56)" d="m531.686 611.356 21.8-137.237a52.032 52.032 0 0 1 65.979-41.781c25.693 7.43 41.525 33.178 36.56 59.46l-22.8 122.559Z"/>
  <path style="stroke:none;stroke-width:1;stroke-dasharray:none;stroke-linecap:butt;stroke-dashoffset:0;stroke-linejoin:miter;stroke-miterlimit:4;fill:#a0616a;fill-rule:nonzero;opacity:1" vector-effect="non-scaling-stroke" transform="matrix(.8 0 0 .8 -198.832 24.726)" d="M618.676 635.91a13.82 13.82 0 0 0 2.4-21.055l22.535-43.64-25.378 2.709-17.509 41.026a13.9 13.9 0 0 0 17.951 20.962Z"/>
  <path style="stroke:none;stroke-width:1;stroke-dasharray:none;stroke-linecap:butt;stroke-dashoffset:0;stroke-linejoin:miter;stroke-miterlimit:4;fill:#6c63ff;fill-rule:nonzero;opacity:1" vector-effect="non-scaling-stroke" transform="matrix(.8 0 0 .8 -198.902 25.44)" d="M623.502 607.158a6.2 6.2 0 0 1-3.335-1.582l-8.622-7.967a6.205 6.205 0 0 1-1.5-6.946l17.232-40.845-2.445-80.705c1.487-10.903 11.532-18.536 22.434-17.049s18.536 11.532 17.049 22.435l4.18 50.733a63.74 63.74 0 0 1-12.284 43.152l-26.873 36.329a6.19 6.19 0 0 1-5.836 2.445"/>
  <path style="stroke:none;stroke-width:1;stroke-dasharray:none;stroke-linecap:butt;stroke-dashoffset:0;stroke-linejoin:miter;stroke-miterlimit:4;fill:#a0616a;fill-rule:nonzero;opacity:1" vector-effect="non-scaling-stroke" transform="matrix(.8 0 0 .8 -197.728 26.058)" d="M414.959 367.24a13.82 13.82 0 0 0 18.453 10.42l31.4 37.767 7.4-24.426-30.952-32.12a13.9 13.9 0 0 0-26.3 8.359Z"/>
  <path style="stroke:none;stroke-width:1;stroke-dasharray:none;stroke-linecap:butt;stroke-dashoffset:0;stroke-linejoin:miter;stroke-miterlimit:4;fill:#6c63ff;fill-rule:nonzero;opacity:1" vector-effect="non-scaling-stroke" transform="matrix(.8 0 0 .8 -195.71 25.896)" d="M439.556 382.894a6.2 6.2 0 0 1 2.757-2.454l10.7-4.833a6.205 6.205 0 0 1 6.982 1.327l30.894 31.793 75.272 29.215a19.924 19.924 0 1 1-20.354 34.258l-48.347-15.932a63.74 63.74 0 0 1-34.948-28.137l-22.976-38.91a6.19 6.19 0 0 1 .023-6.326Z"/>
  <path style="stroke:none;stroke-width:1;stroke-dasharray:none;stroke-linecap:butt;stroke-dashoffset:0;stroke-linejoin:miter;stroke-miterlimit:4;fill:#000;fill-rule:nonzero;opacity:.1" vector-effect="non-scaling-stroke" transform="matrix(.8 0 0 .8 -198.902 25.116)" d="m636.737 502.685-1.374 43.98-25.319 44 21.141-49.03Z"/>
  <path style="stroke:none;stroke-width:1;stroke-dasharray:none;stroke-linecap:butt;stroke-dashoffset:0;stroke-linejoin:miter;stroke-miterlimit:4;fill:#2f2e41;fill-rule:nonzero;opacity:1" vector-effect="non-scaling-stroke" transform="matrix(.8 0 0 .8 -198.68 26.126)" d="M586.495 368.712c3.482 4.12 9.374 5.283 14.81 5.76 11.039.968 27.091-.6 37.879-3.093.77 7.463-1.329 15.509 3.066 21.648a100.5 100.5 0 0 0 3.571-22.783c.133-3.3.081-6.724-1.262-9.758s-4.272-5.61-7.645-5.636a19.16 19.16 0 0 1 8.547-3.654l-10.68-5.367 2.743-2.816-19.336-1.183 5.6-3.558a121.4 121.4 0 0 0-25.441-.8c-3.94.29-8.06.845-11.252 3.128s-5.037 6.82-3.055 10.172a14.77 14.77 0 0 0-11.256 8.93c-1.423 3.609-1.293 7.617-.854 11.462a81.2 81.2 0 0 0 4.26 18.02"/>
  <path style="stroke:#000;stroke-width:0;stroke-dasharray:none;stroke-linecap:butt;stroke-dashoffset:0;stroke-linejoin:miter;stroke-miterlimit:4;fill:#506cd1;fill-rule:nonzero;opacity:1" vector-effect="non-scaling-stroke" transform="matrix(.78 -.18 .18 .78 68.48 272.49)" d="M86.958 29.728v41.625c0 .484-.242.969-.605 1.332-.727.789-1.937.729-2.663 0L62.908 51.601a1.846 1.846 0 0 1 .059-2.666l20.602-20.418a1.93 1.93 0 0 1 1.452-.666c1.089.001 1.937.848 1.937 1.877zm-70.704-1.332 20.781 20.539a1.904 1.904 0 0 1 0 2.666l-20.66 21.023c-.365.365-.908.668-1.455.668-1.031 0-1.878-.91-1.878-1.939V29.728c0-.484.184-.969.547-1.332a1.9 1.9 0 0 1 2.665 0zm1.997-5.454h63.438c.484 0 1.027.181 1.391.547a1.97 1.97 0 0 1 0 2.726L56.546 52.692l-.063.061c-1.211 1.211-2.362 2.182-3.331 2.847-1.153.787-2.243 1.211-3.153 1.211-.968 0-1.998-.424-3.21-1.211-.969-.665-2.06-1.636-3.271-2.847L17.041 26.275a1.84 1.84 0 0 1-.666-1.455c0-1.028.847-1.878 1.876-1.878zm43.806 30.053L82.9 73.837c.301.363.547.848.547 1.332a1.89 1.89 0 0 1-1.879 1.878H18.556c-.547.061-1.092-.121-1.455-.545a1.8 1.8 0 0 1 0-2.665l20.781-20.781.061-.061a1.9 1.9 0 0 1 2.667 0l3.392 3.331a9.2 9.2 0 0 0 2.605 1.818h.121c.971.424 2.06.605 3.271.605 1.152 0 2.243-.182 3.274-.605a6.96 6.96 0 0 0 2.663-1.818l3.394-3.271v-.061c.789-.727 2-.727 2.727.001z"/>
  <path style="stroke:#000;stroke-width:0;stroke-dasharray:none;stroke-linecap:butt;stroke-dashoffset:0;stroke-linejoin:miter;stroke-miterlimit:4;fill:#506cd1;fill-rule:nonzero;opacity:1" vector-effect="non-scaling-stroke" transform="matrix(.22 0 0 .21 371.27 341.82)" d="M75.273 39.302c1.823-.806 6.278-3.006 8.637-6.117 3.006-3.917 2.791-5.259 2.791-5.259l-10.355 1.878-2.735-2.307.75-2.2 9.875-2.039s-4.026-3.328-8.64-4.186c-4.348-.859-9.927.107-12.075 4.775v-.053s-1.072 2.253-1.231 3.756c-.162 1.45-.913 4.616-2.311 7.138-1.179 2.092-2.466 4.507-5.686 7.671l-.858-.858-.377.322-10.947-11.32c-2.896-9.391 11.217-6.815 17.279-6.063-14.702-14.112-30.532-7.405-38.366 8.853-1.932 2.361-6.117.482-8.478 5.367 1.34 3.756 7.135 7.457 10.409 8.638 4.132-2.416 3.22-6.815 4.239-9.98 3.113-2.577 5.581-1.717 8.531.375l11.698 9.498-.322.322.536.59c-8.585 7.084-24.682 20.123-26.56 21.624-2.307 1.879-6.332 5.421-1.932 9.927 4.453 4.507 8.638 1.718 9.98.376.967-.911 15.83-15.238 25.272-24.254L78.543 83.25l8.906-8.586-26.073-25.435c.322-.322.588-.591.695-.643 1.29-1.074 3.383-3.542 8.854-5.152l6.012.752.107-.484z"/>
  <text xml:space="preserve" font-family="Roboto" font-size="18" font-weight="400" style="stroke:none;stroke-width:1;stroke-dasharray:none;stroke-linecap:butt;stroke-dashoffset:0;stroke-linejoin:miter;stroke-miterlimit:4;fill:#2f2e41;fill-rule:nonzero;opacity:1;white-space:pre" transform="matrix(.8 0 0 .72 421.17 352.77)"><tspan x="-27.36" y="5.65">P</tspan><tspan x="-16" y="5.65">r</tspan><tspan x="-8.39" y="5.65">o</tspan><tspan x="1.98" y="5.65">f</tspan><tspan x="7.99" y="5.65">i</tspan><tspan x="12.96" y="5.65">l</tspan><tspan x="17.93" y="5.65">e</tspan></text>
  <path style="stroke:none;stroke-width:1;stroke-dasharray:none;stroke-linecap:butt;stroke-dashoffset:0;stroke-linejoin:miter;stroke-miterlimit:4;fill:#506cd1;fill-rule:nonzero;opacity:1" vector-effect="non-scaling-stroke" transform="matrix(.23 0 0 .23 372.33 386.96)" d="M81.389 41.474h-6.832c-.099 3.54-2.95 6.439-6.539 6.439-3.54 0-6.441-2.899-6.488-6.439H38.521c-.049 3.54-2.949 6.439-6.54 6.439-3.54 0-6.439-2.899-6.488-6.439h-6.834c-3.049 0-5.555 2.507-5.555 5.555 0 2.9 2.31 5.31 5.162 5.506l7.276 27.335c.344 1.375 1.179 2.604 2.605 2.604h42.722c1.477 0 2.213-1.229 2.655-2.604l8.259-27.335c2.852-.196 5.114-2.606 5.114-5.506-.001-3.048-2.459-5.555-5.508-5.555m-17.55 27.335c.786 0 1.426.639 1.426 1.424 0 .788-.64 1.427-1.426 1.427H36.21a1.426 1.426 0 0 1 0-2.851m31.66-3.344H32.177a1.426 1.426 0 0 1 0-2.852H67.87c.786 0 1.426.64 1.426 1.426s-.64 1.426-1.426 1.426m3.687-6.638H28.492a1.425 1.425 0 0 1-1.426-1.426c0-.786.639-1.375 1.426-1.375h43.064c.788 0 1.427.589 1.427 1.375 0 .788-.638 1.426-1.426 1.426"/>
  <path style="stroke:none;stroke-width:1;stroke-dasharray:none;stroke-linecap:butt;stroke-dashoffset:0;stroke-linejoin:miter;stroke-miterlimit:4;fill:#506cd1;fill-rule:nonzero;opacity:1" vector-effect="non-scaling-stroke" transform="matrix(.23 0 0 .23 372.33 386.96)" d="m30.243 44.579.071.042a3.477 3.477 0 0 0 4.749-1.274l11.873-20.564a3.474 3.474 0 0 0-1.272-4.749l-.073-.042a3.477 3.477 0 0 0-4.749 1.274L28.97 39.83a3.48 3.48 0 0 0 1.273 4.749m34.717-1.232a3.477 3.477 0 0 0 4.749 1.274l.071-.042a3.476 3.476 0 0 0 1.273-4.749L59.182 19.265a3.477 3.477 0 0 0-4.749-1.274l-.073.042a3.475 3.475 0 0 0-1.271 4.749z"/>
  <text xml:space="preserve" font-family="Roboto" font-size="18" font-weight="400" style="stroke:none;stroke-width:1;stroke-dasharray:none;stroke-linecap:butt;stroke-dashoffset:0;stroke-linejoin:miter;stroke-miterlimit:4;fill:#2f2e41;fill-rule:nonzero;opacity:1;white-space:pre" transform="matrix(.8 0 0 .72 423.97 398.46)"><tspan x="-28.09" y="5.65">Orders</tspan></text>
  <path style="stroke:none;stroke-width:1;stroke-dasharray:none;stroke-linecap:butt;stroke-dashoffset:0;stroke-linejoin:miter;stroke-miterlimit:4;fill:#6c63ff;fill-rule:nonzero;opacity:1" vector-effect="non-scaling-stroke" transform="matrix(.22 0 0 .21 373.18 436.27)" d="M87.723 49.971c0 10.452-4.227 19.876-11.078 26.672-6.8 6.853-16.221 11.079-26.672 11.079-10.397 0-19.817-4.227-26.672-11.079a37.6 37.6 0 0 1-11.022-26.672c0-10.393 4.227-19.817 11.022-26.67 6.855-6.798 16.275-11.024 26.672-11.024a37.6 37.6 0 0 1 26.672 11.024c6.851 6.853 11.078 16.277 11.078 26.67m-14.222 23.53c5.997-5.995 9.767-14.334 9.767-23.53 0-9.195-3.77-17.476-9.767-23.53a33.2 33.2 0 0 0-23.528-9.71c-9.197 0-17.476 3.715-23.532 9.71-5.997 6.054-9.708 14.335-9.708 23.53s3.711 17.535 9.708 23.53c6.056 5.997 14.335 9.768 23.532 9.768 9.192 0 17.531-3.771 23.528-9.768"/>
  <path style="stroke:none;stroke-width:1;stroke-dasharray:none;stroke-linecap:butt;stroke-dashoffset:0;stroke-linejoin:miter;stroke-miterlimit:4;fill:#6c63ff;fill-rule:nonzero;opacity:1" vector-effect="non-scaling-stroke" transform="matrix(.22 0 0 .21 373.18 436.27)" d="M47.631 46.26V21.071H51v25.016c1.027.401 1.826 1.2 2.287 2.228H72.99v3.37H53.227c-.685 1.371-2.113 2.342-3.71 2.342a4.094 4.094 0 0 1-4.112-4.112c-.001-1.601.912-3.027 2.226-3.655"/>
  <path style="stroke:none;stroke-width:1;stroke-dasharray:none;stroke-linecap:butt;stroke-dashoffset:0;stroke-linejoin:miter;stroke-miterlimit:4;fill:#6c63ff;fill-rule:nonzero;opacity:1" vector-effect="non-scaling-stroke" transform="matrix(.22 0 0 .21 373.18 436.27)" d="M49.973 17.532c8.964 0 17.074 3.656 22.957 9.482 5.884 5.881 9.539 13.991 9.539 22.958 0 8.968-3.655 17.077-9.539 22.959-5.883 5.883-13.993 9.537-22.957 9.537-8.968 0-17.079-3.654-22.962-9.537-5.824-5.883-9.479-13.991-9.479-22.959 0-8.966 3.656-17.077 9.479-22.958 5.883-5.826 13.993-9.482 22.962-9.482m21.756 10.737c-5.536-5.596-13.249-9.023-21.757-9.023-8.453 0-16.166 3.427-21.703 9.023-5.6 5.541-9.023 13.25-9.023 21.703 0 8.509 3.423 16.22 9.023 21.761 5.537 5.538 13.25 9.023 21.703 9.023 8.508 0 16.221-3.485 21.757-9.023 5.541-5.541 9.023-13.252 9.023-21.761.001-8.453-3.481-16.162-9.023-21.703"/>
  <text xml:space="preserve" font-family="Roboto" font-size="18" font-weight="400" style="stroke:none;stroke-width:1;stroke-dasharray:none;stroke-linecap:butt;stroke-dashoffset:0;stroke-linejoin:miter;stroke-miterlimit:4;fill:#2f2e41;fill-rule:nonzero;opacity:1;white-space:pre" transform="matrix(.8 0 0 .72 425.45 447.11)"><tspan x="-29.61" y="5.65">History</tspan></text>
  <text xml:space="preserve" font-family="roboto" font-size="32" font-weight="900" style="stroke:none;stroke-width:1;stroke-dasharray:none;stroke-linecap:butt;stroke-dashoffset:0;stroke-linejoin:miter;stroke-miterlimit:4;fill:#506cd1;fill-rule:nonzero;opacity:1;white-space:pre" transform="matrix(0 -.91 .91 0 65.38 400)"><tspan x="-121.23" y="11.31">VERIFY EMAIL</tspan></text>
</svg>
